<?xml version="1.0" encoding="UTF-8"?><svg id="Layer_2" xmlns="http://www.w3.org/2000/svg" viewBox="0 0 696.81 223.49"><defs><style>.cls-1{fill:#fff;opacity:.5;}</style></defs><g id="Layer_3"><path class="cls-1" d="M328.49,102.41c7.6-1.76,6.95-13.03,13.17-20.02,35.21-39.64,103.53-11.26,97.67,42.19,11.62-4.27,9.42-22.62,4.39-30.97,16.5-4.12,28.66,24.26,34.45,26.41,34.63,12.82,53.73-27.28,94.06,2.52,24.16,17.85,47.54,31.26,75.51,44.1,10.03,4.61,29.96,3.9,42.04,6.82,6.73,1.63,7.78-3.08,6.65,8.76-15.04,1.37-31.34,2.35-46.2,4.81-7.93,1.32-12.89,8.31-22.47,8.93-14.56.94-29.86-8.23-48.64-4.66-12.11,2.3-23.83,16.96-40.09,16.92-11.91-.03-22.73-10.58-31.59-11.37-6.75-.61-14.46,4.11-21.58,3.48-25.27-2.24-58.89-9.51-84.15-4.69-20.86,3.98-24.08,38.58-69.07,24.5-12.32-3.86-18.53-18.72-26.42-22.31-14.96-6.81-85.78-1.56-108.73-2.11-17.17-.41-34.09-8.23-52.94-4.5-15.83,3.12-18.72,24.78-43.25,21.3-9.58-1.36-16.45-8.71-24.6-11.25-19.72-6.14-21.72-8.44-35.44-14.24-9.97-4.21-23.71-3-34.17-4.94-7.26-1.35-7.63,2.92-6.71-8.7,10.07-.76,27.75-.75,36.44-4.6,5.66-2.51,5.93-10.9,12.5-15.3,9.93-6.65,26.8-1.17,37.7-11.32l19.74,17.89c-17.52-44.88,14.26-87.27,62.08-70.94.19-89.39,115.35-122.24,165.97-48.47,22.87,33.33-6.12,27.68-6.3,61.76Z"/></g></svg>