<?xml version="1.0" encoding="UTF-8"?><svg id="Layer_2" xmlns="http://www.w3.org/2000/svg" viewBox="0 0 895.5 310.03"><defs><style>.cls-1{fill:#fff;opacity:.5;}</style></defs><g id="Layer_3"><path class="cls-1" d="M513.62,88.66c-13.29,4.58-25.21,17.04-25.94,31.72,45.36-53.95,126.81-31.54,133.01,39.87,10.34-2.58-.82-22.46,8.52-29.11,19.75-14.06,64.68,21.28,58.4,46.41,15.15.18,22.76.82,21.75,18.17,7.94-4.32,3.46-19.18,7.75-29.86,11.64-28.96,60.43-30.82,78.49-5.43,6.59,9.26,14.28,35.99,24.66,41.84,6.35,3.58,15.11,1.5,21.91,4.67,9.21,4.29,11.29,18.17,16.7,19.81,8.64,2.61,26.17.43,36.63,4.51-6.92,12.82-24.5,8.25-36.72,14.21-8.01,3.9-12.54,13.71-19.57,15.88-30.26,9.33-31.89-13.65-47.98-16.74-7.43-1.42-45.62-1.76-52.19-.18-3.9.94-17.5,32.69-48.61,30.19-17.53-1.41-31.71-19.61-37.18-20.6-8.28-1.51-14.64,13.45-33.82,2.88-9.94-5.48-10.22-13.2-16.97-18.56-21.95-17.44-24.03-5.92-41.89-2.86-8.35,1.43-21.95-2.22-27.73,1.08-1.98,1.13-7.34,15.99-12.3,20.93-21.34,21.27-49.78,8.65-58.83,14.32-1.3.81-6.35,18.15-16.11,26-32.39,26.04-76.3,8.06-84.39-31.2-6.31.17-10.94,7.77-21.88,9.23s-40.2-5.75-41.95-4.46c-9.93,7.28-4.06,35.54-46.93,35.54-43.48,0-42.93-36.67-53.87-39.79-5.8-1.65-25.04,5.87-38.94,3.76-19.89-3.01-25.38-22.13-36.66-25.48-32.25-9.58-88.15,11.08-120.99-12.01l62.06-6.61c-.93-20.44-3.68-38.9,17.62-48.79l8.92,13.3c-21.05-43.5,32.52-79.39,62.34-42.19,8.3,10.36-2.2,20.75,26.14,15.35,1.3-30.05,16.58-55.94,43.49-69.55,6.1-3.08,22.07-5.07,22.82-5.99,1.96-2.4-1.18-17.35,2.68-26.17,6.04-13.8,28.47-21.26,42.09-13.28-2.01,11.53-7.47,21.33-8.91,33.21-.55,4.53-2.99,16.71,4.41,15.48,16.06-126.44,201.93-131.98,229.96-9.53Z"/></g></svg>