<?xml version="1.0" encoding="UTF-8"?><svg id="Layer_2" xmlns="http://www.w3.org/2000/svg" viewBox="0 0 758.05 240.55"><defs><style>.cls-1{fill:#fff;opacity:.5;}</style></defs><g id="Layer_3"><path class="cls-1" d="M236,128.54c1.82,1.6,21.05,7.91,28.84,12.8,24.71,15.54,14.17,8.31,41.32,16.75,9.23,2.87,13.78,14.4,23.19,14.76,20.74.79,19.04-19.55,29.68-32.26,20.43-24.43,67.23-28.6,88.87-4.53,4.91,5.46,8.08,18.64,9.36,19.43,10.24,6.28,31.78-8.17,50.07,18.88,2.75,4.07,2.06,12.39,2.52,12.85,1.39,1.38,13.76-4.68,19.64-4.35,19.46,1.09,30.79,23.24,20.21,39.75l53.18,8.86c-200.54,11.78-402.43,12.39-602.88,0-.31-9.66,19.79-1.86,22.17-4.36,1.47-1.54-2.65-18.94,2.09-26.75,3.56-5.87,14.63-5.67,18.93-9.88,25.6-25.09,20.53-59.54,35.66-86.25,28.79-50.82,101.34-57.16,138.26-12.26,8.07,9.81,16.69,34.62,18.89,36.55Z"/><path class="cls-1" d="M438.91,71.92c47.89-14.91,86.84,22.75,84.22,70.97l31.09-1.89c18.19-56.57,94.49-44.66,88.63,15.15l8.95-26.46c25.33-4.19,49.65,13.86,39.77,39.74l26.76,2.11,39.73,20.05-191.91,8.99c-10.39-29.47-34.4-21.2-47.43-28.93-3.44-2.04-6.58-11.12-14.48-16.52-12.1-8.28-28.46-7.02-36.56-12.08-8.99-5.62-16.4-19.76-27.24-26.12-40.08-23.52-92.55-.57-103.58,43.67l-6.15-.36c-18.54-21.2-52.46-8.85-64.71-35.04l26.25-4.81c-2.34-29.15,14.89-47.37,44.66-44.04-26.24-96.67,118.09-105.2,102.01-4.42Z"/><path class="cls-1" d="M297.98,61.98c-16.64-17.02,16.18-31.75,21.19-14.32,3.23,11.25-11.05,24.69-21.19,14.32Z"/></g></svg>