<?xml version="1.0" encoding="UTF-8"?><svg id="Layer_2" xmlns="http://www.w3.org/2000/svg" viewBox="0 0 713.72 313.9"><defs><style>.cls-1{fill:#fff;opacity:.5;}</style></defs><g id="Layer_3"><path class="cls-1" d="M421.17,189.31c23.26-7.57,43.97-15.95,64.29,4.28,25.02-46.42,85.9-55.87,117.5-11.01,5.16,7.32,5.14,16.16,8.6,21.31,4.03,5.99,17.47,10.8,24.41,21.07,5.37,7.95,6.78,21.77,13.13,26.76,11.17,8.78,38.99,2.7,24.74,30.63,2.71,2.35,36.5-3.09,39.88,8.86-21.86-3.63-43.61,3.77-64.08,4.66-34.5,1.51-89.31-5.93-119.79-.09-10.5,2.01-14.81,12.59-24.22,15.69-26.77,8.82-31.63-9.09-51.04-11.56-45.4-5.76-86.61,9.27-124.33,9.44-30.34.13-80.68-12.02-115.32-13.62-71.55-3.31-143.54,3.1-214.95-4.52l44.33-8.84c-7.65-29.82,7.43-21.54,23.23-26.66,4.7-1.52,4.99-9.12,10.82-12.54,11.27-6.59,23.72,4.1,38.57-10.1,12.73-12.18,10.73-32.15,32.53-42.8,8.6-4.2,18.91-3.63,27.43-8.03,21.6-11.16,34.69-31.79,66.89-24.01-26.78-57.86,48.17-114.98,92.78-68.35,8.54,8.93,10.64,24.89,18.27,30.5,6.38,4.7,19.51,5.75,28.77,11.13,20.98,12.18,38.57,32.42,37.56,57.8Z"/><path class="cls-1" d="M8.84,233.63c1.4-11.79,28.44-6.99,31.03-8.91-13.71-24.58,4.2-21.9,13.44-33.06,4.69-5.66,3.66-13.2,11.4-19.62,6.86-5.69,26.01-8.36,27.54-10.16,1.92-2.26,1.43-13.84,4.22-20.07,23.49-52.46,99.08-48.09,116.3,7.53-17.39.79-28.1,16.37-41.15,23.21-16.81,8.81-35.38,5.16-49.58,25.78-5.24,7.61-7.06,22.44-13,26.9-1.99,1.49-29.44,8.42-31.48,8.42H8.84Z"/><path class="cls-1" d="M345.75,78.44c-15.75-5.11-28.94-16.84-46.95-17.3-41.95-1.07-81.65,42.62-68.3,83.79-10.59,2.46-7.18-1.79-9.88-5.76-6-8.8-29.25-34.59-29.6-36.93-.82-5.47,8.17-10.59,8.4-17.1.37-10.05-15.35-17.25-.23-31.33,8.65-8.05,17.08-4.35,21.47-7.35,2.5-1.71,13.03-27.47,27.76-36.55,48.89-30.13,106.56,12.92,97.33,68.52Z"/><path class="cls-1" d="M517.17,111c4.88,4.84,18.69,28.21,14.7,33.8-19.99,3.85-37.24,13.51-47.09,31.54l-54.07-5.5c-9.71-26.71-30.97-33.24-5.26-59.27,24.32-24.63,66.84-25.24,91.73-.57Z"/><path class="cls-1" d="M434.43,87.38l-37.84,35.58c-11.12-.78-42.42-12.87-41.84-24.58.55-11.35,25.43-3.34,31.11-4.81,14.16-3.68,24.77-19.76,48.57-6.19Z"/><path class="cls-1" d="M88.47,123.08c1.39,21.44-13.1,39.1-35.35,37.76-22.14-26.96,6.79-52.04,35.35-37.76Z"/></g></svg>