<?xml version="1.0" encoding="UTF-8"?><svg id="Layer_2" xmlns="http://www.w3.org/2000/svg" viewBox="0 0 260.77 302.95"><defs><style>.cls-1{fill:#fff;}.cls-2{fill:#878787;}</style></defs><g id="Layer_1-2"><path class="cls-2" d="M181.28,178.55c1.64-5.73-15.02-31.41-15.02-31.41,0,0,8.19,4.64,6.83,1.37-1.37-3.28-13.65-20.48-13.65-20.48,0,0,11.74,6.55,11.74,5.19s-18.3-24.3-30.04-42.06c-11.74-17.75-17.48-13.65-23.21-14.2-8.47-6.01-1.91-32.22,9.83-37.14,11.74-4.92,15.29-4.64,15.29-4.64,3.82-.82,27.31,0,31.04.65-6.85-12.97-10.81-15.85-24.5-19.82-13.69-3.96-29.23-12.68-33.51-14.41-10.17-4.11-43.49.54-51.13,4.63-7.65,4.1-18.88,25.39-40.96,56.53C13.33,77.78-3.06,90.34.49,116.83c3.55,26.49,17.12,51.22,19.53,52.98,1.49,1.09,1.77-8.74,1.77-8.74,0,0,20.75,32.69,29.22,37.37,8.47,4.68,31.68,12.6,31.68,12.6h.22c1.38,3.64,3.29,6.69,5.51,8.43.16,1.65-.29,2.47-1.48,3.49-4.99,4.63-24,35.29-26.41,34.99-2.4.32-26.68,4.34-27.85,6.36,0,0-3.49.3-3.7,3.62,0,0,2.78-1.82,3.63-.96,0,0,6.74.49,14.12.76-8.36,1.14-19.19,2.72-19.73,4.11,0,0-3.4.85-3.08,4.16,0,0,2.46-2.24,3.43-1.52,0,0,6.97.31,15.35-.81-3.66,2.74-7.26,6.45-6.54,10.6,1.11-2.43,2.45-2.79,5.33-2.76,2.89.03,9.67-4.83,10.92-6.66,1.25-1.83,14.27-5.35,20.28-8.85,3,1.35,8.06,3.28,12,3.46,1.97.09,3.12-1.05,3.12-1.05l2.15,1.51s1.39-7.16-6.51-6.65c-4.66.3-11.5-.14-8.87-5.4,4.46-8.93,19.79-30.22,22.49-33.22,1.5-1.67,2.45-5.29,2.99-8.18,1.63-2.03,3.07-4.52,4.31-7.07,3.41-2.08,10.39-4.86,19.27-.58-.18,9.23,3.45,19.54,8.52,23.53-.27.55-.71,1.03-1.33,1.56-5.44,5.05-45.49,45.64-48.11,45.31-2.61.35-24.25-.19-25.53,2.01,0,0-3.81.33-4.04,3.94,0,0,3.03-1.99,3.95-1.05,0,0,3.3.63,10.96.74-7.12,1.25-16.47,3.02-17.07,4.57,0,0-3.71.93-3.36,4.53,0,0,2.68-2.44,3.74-1.66,0,0,7.6.33,16.73-.89-3.99,2.98-7.91,7.03-7.13,11.55,1.21-2.65,2.67-3.04,5.81-3.01,3.15.03,10.54-5.27,11.9-7.26,1.36-1.99,15.55-5.83,22.1-9.65,3.27,1.47,8.79,3.57,13.08,3.77,2.15.1,3.4-1.15,3.4-1.15l2.34,1.64s1.51-7.8-7.1-7.25c-5.08.32-12.53-.15-9.66-5.89,4.86-9.73,36.07-35.19,39.01-38.46,1.2-1.33,2.07-3.81,2.68-6.27,2.03-2.43,3.8-5.55,5.29-8.7,5.34,6.04,16.28,17.92,19.15,17.34,1.37-.27-2.18-9.29-2.18-9.29,0,0,12.02,10.65,14.2,11.2,2.18.55-2.73-9.56-2.73-9.56,0,0,11.74,9.6,13.93,9.58,2.18-.02-4.1-10.67-4.1-10.67,0,0,22.12,12.84,25.67,13.38,3.55.55-11.74-16.93-11.74-16.93,0,0,29.22,18.86,32.77,18.3,3.55-.56-22.94-28.13-22.94-28.13,0,0,47.52,28.11,48.88,25.12,1.36-2.98-66.91-56.26-79.47-62.54Z"/><circle class="cls-1" cx="100.17" cy="16.89" r="3.82"/></g></svg>