<svg width="242" height="284" viewBox="0 0 242 284" fill="none" xmlns="http://www.w3.org/2000/svg">
<path d="M239.08 107.374C236.661 104.994 232.358 105.636 233.333 103.339C234.308 101.034 234.878 96.5751 234.64 93.4842C234.466 91.2473 232.228 87.0531 229.521 84.9296C228.488 84.1209 227.391 83.6146 226.316 83.6297C222.417 83.6902 219.283 87.7106 217.998 88.6099C216.713 89.5092 212.944 89.8719 211.413 90.8468C209.882 91.8141 208.553 95.0712 206.055 95.3433C203.557 95.6229 196.734 93.1064 193.615 93.6127C190.489 94.119 185.918 95.0788 184.727 96.4088C183.536 97.7465 180.496 99.2201 178.106 96.7489C175.716 94.2702 170.366 97.482 170.193 96.6809C170.019 95.8798 166.034 91.7385 162.467 91.7385C158.9 91.7385 156.792 95.2753 154.294 100.074C151.796 104.88 152.077 111.584 152.157 115.959C152.236 120.342 153.572 121.408 153.745 123.788C153.918 126.176 152.973 129.192 154.012 131.459C155.045 133.726 156.344 136.129 156.323 137.399C156.294 138.668 155.94 140.898 154.301 142.001C152.662 143.104 149.536 145.001 148.864 147.775C148.193 150.548 150.106 153.511 152.453 151.546C154.799 149.588 158.619 151.206 160.185 154.682C161.752 158.151 164.352 159.987 164.352 159.987C164.352 159.987 164.929 163.07 166.157 165.02C167.391 166.97 171.781 169.66 171.781 169.66C171.781 169.66 168.084 170.726 165.196 172.91C162.315 175.094 161.435 180.354 161.435 180.354C158.994 176.174 151.362 177.369 148.85 176.696C146.33 176.031 145.413 173.416 144.077 171.209C142.742 169.003 138.453 167.121 136.424 169.706C134.395 172.283 136.814 177.134 138.626 178.842C140.445 180.543 139.557 185.553 139.745 188.221C139.933 190.888 141.572 192.06 142.012 192.604C142.453 193.14 142.373 195.974 134.807 199.911C127.24 203.849 125.485 210.605 125.11 215.683C124.742 220.769 128.886 228.772 137.428 228.311C145.969 227.85 149.716 231.478 149.709 237.531C149.709 243.577 146.381 253.688 137.211 258.903C128.041 264.117 124.171 274.992 124.171 274.992C124.33 277.38 126.077 273.737 127.449 272.029C128.814 270.314 132.525 267.299 134.72 266.603C136.922 265.908 146.381 266.301 148.583 265.598C150.785 264.895 150.648 263.8 155.991 261.185C161.334 258.57 167.131 255.388 170.193 249.433C173.254 243.471 169.861 233.427 169.861 233.427C169.861 233.427 175.933 229.505 178.648 226.845C181.362 224.185 185.247 216.605 185.247 216.605C185.247 216.605 191.225 218.17 196.856 217.444C202.495 216.719 207.565 213.469 210.164 208.36C210.316 208.058 210.467 207.741 210.604 207.401C212.843 202.141 213.514 193.533 213.68 190.148C213.854 186.55 212.524 186.959 210.373 186.634C208.221 186.309 209.384 183.142 209.002 173.666C208.619 164.189 201.766 163.879 200.084 162.745C198.394 161.612 198.777 156.057 199.001 150.057C199.225 144.057 194.72 140.716 192.171 140.716C189.622 140.716 184.402 141.049 177.687 139.915C172.756 139.084 172.539 136.333 173.463 133.598C173.795 132.608 174.279 131.625 174.741 130.733C176.489 127.363 177.55 126.705 183.796 123.169C190.041 119.632 192.294 115.574 194.864 111.251C197.434 106.928 202.813 109.415 203.513 110.201C204.214 110.979 206.583 113.488 206.72 116.995C206.85 120.509 208.871 124.227 212.185 123.902C213.658 123.758 215.42 122.95 217.211 121.831C219.442 120.441 221.737 118.566 223.643 116.904C227.066 113.896 230.929 117.365 231.991 120.032C233.059 122.7 230.416 125.64 229.009 125.64C227.601 125.64 226.091 123.72 223.304 124.053C220.524 124.393 220.084 129.774 222.199 130.741C224.322 131.708 227.47 127.575 227.983 128.973C228.495 130.371 230.402 135.774 233.543 134.482C236.684 133.182 238.561 124.166 238.944 123.501C239.326 122.836 241.289 118.672 241.362 115.974C241.434 113.276 241.492 109.762 239.066 107.382L239.08 107.374ZM166.149 101.427C163.846 104.442 161.045 102.613 159.023 103.883C157.001 105.152 156.727 108.417 156.222 111.992C155.709 115.559 155.03 116.995 154.445 113.352C153.861 109.709 154.698 104.155 156.222 101.079C157.752 98.011 160.482 94.6783 164.51 94.6783C166.676 94.6783 167.283 99.9531 166.157 101.427H166.149ZM138.792 202.05C138.222 203.448 135.926 205.149 134.2 208.051C132.482 210.952 133.817 215.252 135.637 217.459C137.456 219.658 139.269 225.167 136.113 224.963C132.958 224.767 128.821 219.258 128.821 213.348C128.821 207.438 132.547 203.35 137.261 201.249C138.77 200.577 139.362 200.652 138.792 202.05ZM168.185 248.912C167.131 251.489 163.839 253.492 159.283 255.849C155.622 257.746 157.796 254.557 159.824 253.386C161.803 252.252 164.525 250.182 165.37 248.579C166.214 246.985 164.814 241.181 165.146 239.254C165.564 236.775 168.568 236.624 169.016 239.073C169.463 241.521 169.247 246.335 168.193 248.904L168.185 248.912ZM195.391 145.712C197.109 147.911 195.203 158.922 195.962 161.325C196.727 163.728 198.258 165.526 202.655 167.325C207.051 169.124 204.755 175.532 205.138 179.696C205.521 183.86 208.821 190.896 209.983 195.679C210.951 199.647 209.939 204.604 208.322 207.846C207.99 208.512 207.637 209.101 207.269 209.6C205.088 212.532 197.861 214.731 194.2 215.154C191.131 215.509 193.947 212.086 196.879 211.02C197.839 210.673 198.828 210.091 199.745 209.388C201.629 207.96 203.233 206.01 203.745 204.491C204.511 202.224 206.264 197.463 205.781 193.684C205.326 190.155 205.146 185.432 203.745 182.613C201.507 178.124 197.903 175.993 195.586 174.142C190.994 170.469 193.203 162.201 193.55 158.196C193.897 154.191 189.29 148.304 188.323 146.921C184.308 141.177 193.68 143.52 195.398 145.719L195.391 145.712Z" fill="#39A935" fill-opacity="0.8"/>
<path d="M140.236 168.889C140.597 168.988 141.059 169.041 141.601 169.086C140.835 168.708 140.005 168.474 139.196 168.459C139.514 168.64 139.853 168.791 140.236 168.897V168.889Z" fill="#D2D9DB" fill-opacity="0.8"/>
<path d="M210.365 186.618C208.214 186.294 209.376 183.127 208.994 173.65C208.611 164.174 201.759 163.864 200.077 162.73C200.033 162.7 199.983 162.662 199.939 162.625C200.178 163.562 200.337 164.627 200.387 165.844C200.387 165.987 200.394 166.131 200.402 166.267C201.051 166.622 201.795 166.97 202.654 167.318C207.051 169.116 204.755 175.525 205.138 179.689C205.521 183.853 208.82 190.888 209.983 195.672C211.145 200.456 209.441 206.66 207.261 209.592C205.08 212.524 197.853 214.723 194.193 215.147C191.124 215.502 193.94 212.078 196.871 211.013C199.802 209.947 202.972 206.751 203.737 204.484C204.503 202.216 206.257 197.455 205.773 193.677C205.477 191.349 205.29 188.508 204.799 186.029C204.394 190.457 203.485 196.722 201.542 200.539C198.943 205.647 193.875 208.897 188.236 209.622C182.597 210.348 176.626 208.784 176.626 208.784C176.626 208.784 175.016 217.693 172.301 220.354C169.579 223.014 164.611 224.094 164.33 228.168C164.012 232.793 164.626 235.642 161.564 241.604C158.503 247.567 161.608 249.093 156.272 251.708C154.352 252.645 153.817 259.583 149.232 259.447C148.034 259.409 144.236 263.603 142.857 263.716C138.142 264.117 130.402 266.067 129.348 267.586C126.532 271.621 124.157 274.977 124.157 274.977C124.316 277.365 126.063 273.722 127.435 272.014C128.799 270.299 132.51 267.283 134.705 266.588C136.908 265.893 146.366 266.286 148.568 265.583C150.77 264.88 150.633 263.784 155.976 261.17C161.319 258.555 167.117 255.373 170.178 249.418C173.24 243.456 169.846 233.412 169.846 233.412C169.846 233.412 175.918 229.49 178.633 226.83C181.348 224.17 185.232 216.59 185.232 216.59C185.232 216.59 191.211 218.154 196.842 217.429C202.481 216.703 207.55 213.454 210.149 208.345C212.748 203.237 213.492 193.73 213.665 190.133C213.838 186.535 212.51 186.943 210.358 186.618H210.365ZM168.185 248.912C167.131 251.489 163.839 253.492 159.283 255.849C155.622 257.746 157.796 254.557 159.824 253.386C161.803 252.252 164.525 250.182 165.37 248.579C166.214 246.985 164.814 241.181 165.146 239.254C165.564 236.775 168.568 236.624 169.016 239.073C169.463 241.521 169.247 246.335 168.193 248.904L168.185 248.912Z" fill="#1C5619" fill-opacity="0.8"/>
<path d="M216.813 122.065C217.297 121.771 217.789 121.461 218.279 121.128C217.861 121.363 217.355 121.718 216.813 122.065Z" fill="#D2D9DB" fill-opacity="0.8"/>
<path d="M239.08 107.367C238.228 106.528 239.586 111.44 238.264 112.717C235.817 115.083 230.597 115.249 230.352 115.68C230.265 115.823 230.113 116.375 229.89 117.153C230.857 117.984 231.608 119.05 231.998 120.017C233.066 122.685 230.424 125.625 229.016 125.625C228.366 125.625 227.687 125.209 226.872 124.801C225.839 124.212 224.482 123.872 223.312 124.038C222.164 124.204 221.904 124.793 221.5 125.345C220.482 127.091 220.69 130.031 222.207 130.718C224.329 131.686 227.478 127.552 227.991 128.95C228.503 130.348 230.409 135.751 233.55 134.459C236.691 133.159 238.568 124.144 238.951 123.479C239.334 122.814 241.297 118.65 241.37 115.952C241.442 113.254 241.499 109.74 239.073 107.359L239.08 107.367Z" fill="#D2D9DB" fill-opacity="0.8"/>
<path d="M195.962 161.325C196.135 161.861 196.344 162.375 196.618 162.859C196.481 162.164 196.25 161.529 195.882 160.985C195.904 161.113 195.933 161.226 195.962 161.325Z" fill="#D2D9DB" fill-opacity="0.8"/>
<path d="M193.24 155.672C192.648 153.564 191.341 151.319 190.2 149.596C190.243 152.286 190.539 154.297 191.478 154.931C191.853 155.181 192.481 155.392 193.24 155.672Z" fill="#D2D9DB" fill-opacity="0.8"/>
<path d="M192.171 140.701C191.665 140.701 191.052 140.716 190.344 140.724C190.395 141.208 190.409 141.706 190.387 142.235C190.373 142.628 190.359 143.014 190.344 143.407C192.301 143.709 194.611 144.722 195.384 145.712C196.546 147.2 196.048 152.725 195.839 156.881C196.986 157.584 198.12 158.589 198.972 160.138C198.633 157.705 198.842 153.972 198.986 150.042C199.21 144.042 194.705 140.701 192.156 140.701H192.171Z" fill="#D2D9DB" fill-opacity="0.8"/>
<path d="M213.672 190.14C213.506 193.526 212.842 202.133 210.596 207.393C209.86 207.552 209.095 207.703 208.315 207.854C209.932 204.604 210.95 199.655 209.976 195.687C208.813 190.903 205.513 183.868 205.131 179.704C204.748 175.54 207.044 169.139 202.647 167.333C198.25 165.534 196.719 163.728 195.954 161.332C195.189 158.929 197.102 147.926 195.384 145.719C193.665 143.52 184.294 141.177 188.308 146.921C189.276 148.304 193.882 154.191 193.535 158.196C193.196 162.201 190.987 170.469 195.572 174.142C197.889 175.993 201.492 178.124 203.73 182.613C205.138 185.432 205.319 190.155 205.766 193.684C206.25 197.463 204.488 202.224 203.73 204.491C203.217 206.018 201.615 207.96 199.73 209.388C197.073 209.894 195.088 210.378 194.669 210.892C193.196 212.691 183.326 211.489 188.243 209.63C193.153 207.763 194.423 202.685 194.669 196.685C194.922 190.684 192.698 184.276 189.355 179.704C186.012 175.132 184.662 173.87 185.81 166.668C186.958 159.466 182.878 151.243 177.781 143.324C176.777 141.767 175.557 140.467 174.431 139.454C172.546 137.762 170.474 133.363 170.474 133.363L173.456 133.598C172.532 136.333 172.741 139.084 177.68 139.915C184.388 141.049 189.615 140.716 192.164 140.716C194.712 140.716 199.217 144.049 198.994 150.057C198.77 156.057 198.394 161.612 200.077 162.745C201.759 163.879 208.611 164.189 208.994 173.666C209.376 183.142 208.207 186.301 210.365 186.634C212.517 186.959 213.853 186.558 213.672 190.148V190.14Z" fill="#1C5619" fill-opacity="0.8"/>
<path d="M239.081 107.374C236.662 104.994 232.358 105.636 233.333 103.339C234.308 101.034 234.878 96.5751 234.64 93.4842C234.466 91.2473 232.228 87.0531 229.521 84.9296C229.521 84.9296 231.441 97.5575 226.069 104.419C225.022 105.757 221.189 108.636 218.279 109.226C215.363 109.823 212.612 108.478 211.24 107.941C209.529 107.155 201.694 103.762 198.185 104.419C194.676 105.077 192.763 106.105 190.193 110.42C187.622 114.742 182.886 111.931 176.64 115.468C170.395 118.997 172.843 122.859 171.095 126.229C169.348 129.6 169.716 138.684 176.424 139.817C176.879 139.893 176.676 139.689 175.954 139.477C175.442 139.326 174.554 138.525 173.933 137.792C172.9 136.56 173.059 135.071 173.788 132.698C174.07 132.018 174.402 131.346 174.727 130.726C176.474 127.355 177.536 126.698 183.781 123.161C190.027 119.624 192.279 115.566 194.85 111.244C195.702 109.808 196.872 109.12 198.077 108.878C198.547 108.916 200.034 108.742 200.937 108.984C203.507 110.186 205.572 113.526 206.438 115.196C206.583 115.755 206.684 116.352 206.706 116.979C206.835 120.493 208.856 124.212 212.17 123.887C213.174 123.788 214.315 123.38 215.506 122.776C215.217 122.897 217.406 121.68 217.514 121.619C219.009 120.735 220.908 119.496 221.796 118.453C222.186 118.128 222.575 117.811 222.944 117.493C224.005 116.745 225.507 115.929 226.655 115.748C226.669 115.748 227.399 115.71 228.063 115.982C228.727 116.254 229.347 116.843 229.86 117.161C230.827 117.992 231.586 119.065 231.969 120.032C233.038 122.7 230.395 125.64 228.987 125.64C227.579 125.64 226.07 123.72 223.283 124.053C220.503 124.393 220.063 129.774 222.178 130.741C224.301 131.708 227.448 127.575 227.961 128.973C228.474 130.371 230.381 135.774 233.521 134.482C236.662 133.182 238.539 124.166 238.922 123.501C239.305 122.836 241.269 118.672 241.341 115.974C241.413 113.276 241.471 109.762 239.045 107.382L239.081 107.374Z" fill="#1C5619" fill-opacity="0.8"/>
<path d="M115.208 45.9369C115.208 45.9369 118.201 40.5988 119.154 38.3039C120.115 36.0081 119.389 21.838 111.772 19.0354C104.155 16.2328 104.723 23.6962 106.441 26.4372C108.166 29.1771 114.404 33.2145 114.999 35.5636C115.586 37.9137 114.128 40.9934 110.837 41.4408C107.545 41.8808 101.956 35.0664 99.7291 31.3005C97.5032 27.5421 94.7906 23.0075 91.4743 20.7621C88.1568 18.5092 87.0424 14.3194 86.3651 9.729C85.6878 5.13861 84.9482 4.23176 84.476 6.86812C84.0038 9.50449 83.9314 13.7624 86.5813 20.2465C89.2312 26.7306 93.4557 30.7289 92.9763 34.2066C92.4968 37.6843 87.5133 36.4564 84.9775 34.6534C82.4346 32.8515 79.803 31.7349 76.5046 33.2223C75.7042 33.5848 70.2721 36.7849 66.7747 41.1281C62.5141 46.4318 60.018 53.0105 58.287 52.8534C55.6015 52.608 60.6847 38.1384 58.9814 35.3494C57.2781 32.5604 50.985 36.2084 49.7205 36.838C48.4641 37.4741 46.0533 36.0729 45.9537 32.925C45.8531 29.7697 44.366 25.4286 40.7107 20.3915C37.0626 15.3533 25.8433 8.81208 26.3192 15.8461C26.7879 22.8812 32.4548 29.8292 27.1833 28.5291C21.9047 27.2302 22.3466 29.3345 24.5408 31.5927C26.734 33.8434 26.4709 37.1059 24.1038 42.3822C21.7439 47.6576 21.9716 52.0698 22.0774 57.5849C22.1903 63.0988 20.0466 67.9603 22.5634 73.1959C25.0885 78.438 21.821 80.0354 19.2222 77.6077C16.6234 75.18 13.4129 75.5315 10.8865 79.8765C8.3612 84.229 11.4695 89.9121 13.3176 93.2374C15.1657 96.5626 20.7909 103.524 21.9562 108.257C23.1286 112.988 22.3442 117.465 22.7309 122.114C23.1175 126.763 28.3182 133.321 34.2179 139.967C40.1176 146.614 57.9304 157.331 60.7147 162.351C63.499 167.372 60.6847 173.822 57.6844 178.664C54.6829 183.5 51.1686 190.053 52.7015 196.633C54.2332 203.206 66.3191 209.833 68.5944 215.41C70.8696 220.987 70.4277 227.835 69.548 233.053C68.6673 238.262 72.4871 241.793 75.4248 245.974C78.3625 250.154 86.3662 266.856 88.4539 271.162C90.5416 275.468 91.8291 276.577 92.1384 274.469C92.4477 272.36 91.1906 258.299 89.0076 251.517C86.8174 244.736 83.9293 236.935 83.7376 231.876C83.554 226.823 86.481 220.593 84.3798 214.563C82.2785 208.532 81.6979 207.862 81.4076 202.58C81.1245 197.298 86.9051 189.089 89.2264 183.651C91.5478 178.213 92.5359 171.406 89.7945 166.379C87.0531 161.353 84.9683 158.352 85.9114 155.593C86.8545 152.834 90.5676 157.274 92.1793 157.266C93.792 157.264 97.4109 152.162 98.1737 151.347C98.9376 150.539 102.837 149.215 105.855 145.783C108.868 142.359 107.171 136.796 105.267 135.71C103.363 134.631 102.279 134.852 100.373 137.761C98.4668 140.67 95.6812 144.297 96.8115 140.235C97.9346 136.173 96.8441 132.492 97.0984 129.269C97.3527 126.046 97.9095 122.45 97.354 118.437C96.8067 114.431 90.4463 106.394 90.4463 106.394C90.4463 106.394 98.5444 104.741 105.239 102.08C111.934 99.4268 110.871 91.1349 110.865 87.2398C110.86 83.3448 115.2 76.6468 116.659 74.4224C118.118 72.1904 122.66 63.7973 122.765 54.0193C122.869 44.2413 115.192 45.9241 115.192 45.9241L115.208 45.9369ZM25.5258 60.2309C25.2797 56.3867 23.9581 50.1497 24.5978 47.4122C25.2376 44.6747 25.852 41.7653 27.1392 40.2004C28.4346 38.6419 32.0373 37.1401 31.4772 38.7353C30.7486 40.8213 29.7534 42.832 28.8769 44.6572C27.3318 47.8873 30.9138 48.6192 32.4492 52.7927C33.9857 56.9737 31.3896 61.3901 29.3576 67.6025C27.3257 73.8148 29.8248 74.8746 30.5415 81.1168C31.257 87.3516 25.2343 73.7873 23.7872 69.2723C22.3473 64.7562 25.7658 64.0838 25.5187 60.232L25.5258 60.2309ZM51.0204 146.013C49.2442 145.649 44.4189 144.306 41.1224 142.096C35.0329 138.021 29.7292 132.15 27.9794 127.711C26.2356 123.262 25.3456 116.587 26.1227 112.653C26.8925 108.72 20.1709 102.34 22.2485 101.186C24.3249 100.024 32.7446 109.552 33.6425 114.599C34.5403 119.646 31.7068 122.997 33.745 129.343C36.7289 138.634 47.133 139.551 49.2949 140.898C51.4568 142.244 57.2584 147.285 51.0215 146.021L51.0204 146.013ZM88.6623 173.001C89.7898 179.802 86.6311 182.483 83.254 187.74C80.868 191.454 79.749 197.126 78.9756 197.622C78.2022 198.118 79.0262 189.754 80.7644 185.954C82.5015 182.145 84.0014 176.729 82.9856 171.181C81.9688 165.624 84.0198 161.273 84.5777 162.581C85.1285 163.89 87.5349 166.201 88.6623 173.001ZM93.1779 117.487C95.2023 122.75 93.0495 123.839 92.7529 127.122C92.4645 130.411 94.2061 133.805 93.7581 136.606C92.8924 142.066 88.8483 137.262 88.4348 142.869C88.0131 148.469 85.4664 150.747 85.0385 144.088C84.8218 140.69 82.0789 137.879 81.5368 135.392C81.0162 133.001 85.3504 127.503 85.5556 123.898C85.9724 116.534 78.9442 114.11 81.4746 111.178C84.0051 108.245 91.1523 112.217 93.1768 117.48L93.1779 117.487ZM102.07 44.5448C99.7843 44.8821 93.8033 51.3868 90.7757 51.6425C87.7482 51.8983 83.4863 44.9263 80.9857 43.2633C78.4791 41.6088 78.0199 44.8773 74.0632 46.0569C70.1063 47.2366 66.231 49.7105 65.2233 51.8835C64.2156 54.0565 61.6836 56.187 62.6697 53.7193C64.1733 49.9606 69.792 39.1704 74.5824 37.9518C79.3738 36.7406 83.8172 41.1344 86.2609 44.3412C88.7107 47.5395 96.9661 42.2041 99.0988 41.3241C101.231 40.4442 107.155 43.9856 108.502 45.941C109.841 47.8976 104.357 44.215 102.071 44.5523L102.07 44.5448Z" fill="#39A935" fill-opacity="0.8"/>
<path d="M115.208 45.9369C115.208 45.9369 118.201 40.5988 119.154 38.3039C119.775 36.8221 119.689 30.4027 117.51 25.2777C116.313 22.4598 114.405 33.222 114.999 35.5636C115.333 36.8893 116.536 39.9506 114.612 42.3888C113.117 44.2822 111.123 44.6147 110.711 46.3254C110.3 48.0362 113.183 51.1552 111.283 53.4675C109.384 55.7797 104.368 57.6961 101.874 58.553C99.3807 59.4098 96.076 67.4829 96.0804 71.3705C96.0786 75.2666 103.59 97.2891 96.8889 99.9507C93.435 101.324 79.7127 91.7675 75.5346 93.2778C73.3937 94.052 67.8477 100.141 69.0485 106.549C70.0488 111.894 77.597 117.594 78.2381 119.317C79.6425 123.098 81.1111 126.769 80.534 128.596C78.7759 134.142 75.2954 135.136 74.7238 136.802C73.7807 139.561 75.6674 145.127 78.4088 150.154C81.1503 155.18 75.2323 152.417 72.911 157.855C71.8913 160.244 79.1978 172.121 77.3476 175.954C74.9896 180.847 71.1713 187.071 69.7988 190.283C68.4334 193.494 71.9868 201.205 74.4174 204.521C76.8408 207.837 78.5518 210.679 80.7272 218.547C82.657 225.542 78.9425 231.728 79.5656 233.675C80.5745 236.804 80.1921 243.857 80.7379 248.2C84.2299 254.109 86.5901 267.335 88.4549 271.17C90.5426 275.476 91.8302 276.584 92.1395 274.476C92.4488 272.368 91.1915 258.307 89.0085 251.525C86.8184 244.743 83.9304 236.942 83.7386 231.883C83.555 226.83 86.4821 220.601 84.3808 214.57C82.2795 208.54 81.6989 207.869 81.4086 202.588C81.1255 197.305 86.9061 189.096 89.2275 183.658C91.5489 178.221 92.537 171.414 89.7955 166.387C87.0541 161.36 84.9693 158.36 85.9124 155.601C86.8555 152.841 90.5687 157.282 92.1803 157.273C93.7931 157.272 97.412 152.17 98.1748 151.355C98.9387 150.547 102.845 149.222 105.856 145.791C108.869 142.367 107.173 136.804 105.268 135.718C103.364 134.639 102.28 134.86 100.374 137.769C98.4679 140.678 95.6823 144.305 96.8126 140.242C97.9357 136.181 96.8452 132.499 97.0995 129.276C97.3538 126.053 97.9106 122.457 97.3551 118.445C96.8078 114.439 90.4474 106.401 90.4474 106.401C90.4474 106.401 98.5455 104.748 105.24 102.087C111.935 99.4343 110.872 91.1424 110.867 87.2473C110.861 83.3523 115.201 76.6543 116.661 74.4298C118.119 72.1979 122.661 63.8048 122.766 54.0268C122.87 44.2488 115.193 45.9316 115.193 45.9316L115.208 45.9369ZM88.6623 173.001C89.7898 179.802 86.6311 182.483 83.254 187.74C80.868 191.454 79.749 197.126 78.9756 197.622C78.2022 198.118 79.0262 189.754 80.7644 185.954C82.5015 182.145 84.0014 176.729 82.9856 171.181C81.9688 165.624 84.0198 161.273 84.5777 162.581C85.1285 163.89 87.5349 166.201 88.6623 173.001ZM93.1779 117.487C95.2023 122.75 93.0495 123.839 92.7529 127.122C92.4645 130.411 94.2061 133.805 93.7581 136.606C92.8924 142.066 88.8483 137.262 88.4348 142.869C88.0131 148.469 85.4664 150.747 85.0385 144.088C84.8695 141.409 81.6049 136.398 81.5937 134.146C81.5826 131.894 85.7697 127.824 85.5587 122.683C85.435 119.669 83.148 115.644 81.1016 113.349C81.0488 113.288 80.8878 112.395 81.0667 111.826C81.3897 110.801 81.7997 110.908 82.5731 110.412C85.6519 109.217 91.3994 112.853 93.1768 117.48L93.1779 117.487Z" fill="#66FF5A" fill-opacity="0.8"/>
</svg>
