<svg width="161" height="357" viewBox="0 0 161 357" fill="none" xmlns="http://www.w3.org/2000/svg">
<path d="M151.998 60.1763C151.998 60.1763 157.178 53.7663 158.948 50.9463C160.728 48.1263 162.598 29.4363 152.728 24.2963C142.858 19.1563 142.128 29.0363 143.928 32.9563C145.738 36.8763 153.468 43.3663 153.808 46.5563C154.138 49.7463 151.518 53.4963 146.918 53.4463C142.318 53.3863 136.038 43.3863 133.748 38.0263C131.458 32.6763 128.658 26.2163 124.568 22.6363C120.478 19.0463 119.798 13.3463 119.798 7.20627C119.798 1.06627 118.968 -0.263717 117.788 3.09628C116.608 6.45628 115.648 12.0163 117.968 21.0163C120.288 30.0163 125.268 36.0663 123.908 40.5263C122.548 44.9863 115.968 42.4163 112.858 39.5663C109.738 36.7163 106.358 34.7463 101.538 36.0563C100.368 36.3763 92.2784 39.5163 86.6084 44.5263C79.6984 50.6463 74.9484 58.7763 72.6084 58.2363C68.9784 57.3963 78.8684 39.4363 77.0984 35.4563C75.3285 31.4763 65.9684 35.0363 64.1084 35.6163C62.2584 36.2063 59.2384 33.9063 59.7384 29.7663C60.2384 25.6163 59.0784 19.6463 55.0884 12.3463C51.1084 5.04628 37.0584 -5.68373 36.2884 3.61627C35.5084 12.9163 41.8684 23.1063 34.9084 20.3863C27.9384 17.6663 28.1184 20.5063 30.6684 23.8863C33.2184 27.2563 32.1984 31.4763 27.8884 37.9263C23.5884 44.3763 23.0084 50.1963 22.0384 57.4363C21.0784 64.6763 17.1584 70.6263 19.5484 77.9663C21.9484 85.3163 17.1484 86.7763 14.0784 83.0963C11.0084 79.4163 6.53842 79.2563 2.19842 84.4563C-2.14158 89.6663 0.968429 97.7063 2.82843 102.416C4.68843 107.126 10.9884 117.326 11.6284 123.746C12.2784 130.166 10.2984 135.876 9.88842 142.036C9.47842 148.196 15.2784 157.786 22.0184 167.626C28.7584 177.466 50.9984 194.936 53.7984 202.046C56.5984 209.156 51.4384 217.056 46.3484 222.816C41.2584 228.566 35.1184 236.466 35.8884 245.376C36.6584 254.276 51.8784 265.286 53.8684 273.026C55.8584 280.766 53.8684 289.646 51.6084 296.306C49.3484 302.956 53.8684 308.316 57.0484 314.356C60.2284 320.396 67.8184 343.806 69.8084 349.846C71.7984 355.886 73.3384 357.586 74.1884 354.886C75.0384 352.186 76.1585 333.536 74.5385 324.236C72.9085 314.936 70.5284 304.166 71.2885 297.506C72.0584 290.856 77.3284 283.266 75.6684 274.966C74.0084 266.666 73.3484 265.676 74.0184 258.706C74.6984 251.736 84.2784 242.106 88.5584 235.436C92.8384 228.766 95.5684 220.046 92.8284 212.936C90.0884 205.826 87.8384 201.496 89.6884 198.066C91.5384 194.636 95.7284 201.166 97.9384 201.466C100.148 201.776 106.138 195.796 107.348 194.876C108.558 193.966 114.168 192.986 118.998 189.076C123.818 185.176 122.618 177.566 120.228 175.776C117.838 173.996 116.308 174.076 113.108 177.516C109.908 180.956 105.358 185.166 107.728 180.066C110.088 174.966 109.338 169.936 110.338 165.766C111.338 161.596 112.828 156.996 112.878 151.636C112.938 146.286 105.848 134.536 105.848 134.536C105.848 134.536 117.278 133.936 126.988 131.746C136.698 129.566 136.918 118.506 137.698 113.406C138.478 108.306 145.778 100.376 148.228 97.7463C150.678 95.1063 158.598 84.9963 160.718 72.2163C162.838 59.4363 151.978 60.1563 151.978 60.1563L151.998 60.1763ZM26.2284 61.5663C26.6684 56.4863 26.1184 48.0663 27.5484 44.6063C28.9784 41.1463 30.4084 37.4563 32.4884 35.6563C34.5784 33.8663 39.8184 32.5963 38.7284 34.5763C37.3084 37.1663 35.5384 39.6063 33.9684 41.8263C31.1984 45.7563 35.9584 47.4063 37.2184 53.1663C38.4784 58.9363 34.0284 64.2163 29.9884 71.9563C25.9484 79.6963 29.1584 81.5663 28.8784 89.8763C28.5984 98.1763 23.0884 79.2563 22.0184 73.0663C20.9584 66.8763 25.7784 66.6563 26.2184 61.5663H26.2284ZM43.8184 178.786C41.4584 177.966 35.1184 175.276 31.0484 171.746C23.5284 165.236 17.4484 156.526 15.9484 150.376C14.4584 144.216 14.5884 135.306 16.4484 130.306C18.2984 125.306 10.3784 115.656 13.4584 114.546C16.5384 113.426 26.1484 127.526 26.3584 134.306C26.5684 141.086 22.0084 144.926 23.5184 153.626C25.7284 166.366 39.7984 169.576 42.4884 171.756C45.1784 173.936 52.1084 181.656 43.8184 178.796V178.786ZM89.9384 221.386C90.1084 230.506 85.2384 233.406 79.5484 239.636C75.5284 244.036 72.8484 251.246 71.6884 251.746C70.5284 252.246 73.3484 241.456 76.4984 236.816C79.6484 232.166 82.7984 225.366 82.5284 217.906C82.2584 210.436 85.9484 205.136 86.4484 206.956C86.9384 208.776 89.7684 212.266 89.9384 221.386ZM107.348 149.586C109.058 156.866 105.888 157.876 104.818 162.116C103.758 166.366 105.458 171.146 104.278 174.726C101.988 181.706 97.4184 174.636 95.7184 181.896C94.0084 189.146 90.0584 191.636 90.8184 182.836C91.2084 178.346 88.0184 174.136 87.7784 170.776C87.5484 167.546 94.5984 161.186 95.6084 156.506C97.6684 146.946 88.5284 142.416 92.5884 139.066C96.6484 135.716 105.638 142.296 107.348 149.576V149.586ZM134.278 55.8163C131.078 55.8163 121.568 63.1763 117.368 62.9263C113.168 62.6763 108.738 52.7263 105.648 50.0663C102.548 47.4163 101.258 51.6063 95.5984 52.3863C89.9384 53.1663 84.1284 55.6563 82.3084 58.3063C80.4884 60.9563 76.5884 63.2563 78.4384 60.2163C81.2584 55.5863 91.1384 42.5463 97.9484 41.8763C104.758 41.2163 109.958 47.8263 112.658 52.4963C115.368 57.1563 127.758 51.7663 130.858 51.0263C133.958 50.2863 141.358 56.0663 142.808 58.8863C144.248 61.7063 137.478 55.8263 134.278 55.8263V55.8163Z" fill="#FF0000"/>
<path d="M151.998 60.1763C151.998 60.1763 157.178 53.7663 158.948 50.9463C160.098 49.1263 161.278 40.7063 159.328 33.5763C158.258 29.6563 153.468 43.3763 153.808 46.5563C153.998 48.3563 155.028 52.5963 151.898 55.4163C149.468 57.6063 146.668 57.6563 145.758 59.8163C144.848 61.9763 148.168 66.6163 145.098 69.2763C142.028 71.9363 134.768 73.4763 131.178 74.1163C127.588 74.7563 121.428 84.6863 120.648 89.7763C119.858 94.8763 125.698 125.156 115.978 127.346C110.968 128.476 94.0983 113.316 88.0683 114.486C84.9783 115.086 76.1483 121.986 76.4983 130.606C76.7883 137.796 85.9783 146.716 86.5083 149.096C87.6683 154.316 88.9383 159.406 87.7783 161.686C84.2483 168.606 79.2783 169.236 78.1583 171.306C76.3083 174.736 77.7683 182.386 80.5083 189.496C83.2483 196.606 75.6983 191.846 71.4183 198.516C69.5383 201.446 77.1483 218.406 73.8383 223.066C69.6183 229.016 63.1283 236.426 60.5983 240.366C58.0783 244.306 61.3883 255.086 64.0483 259.896C66.6983 264.706 68.4683 268.756 69.8583 279.476C71.0883 289.006 64.7483 296.386 65.2083 299.056C65.9583 303.346 64.0083 312.506 63.8783 318.296C67.4683 326.706 68.0283 344.476 69.8083 349.856C71.7983 355.896 73.3383 357.596 74.1883 354.896C75.0383 352.196 76.1583 333.546 74.5383 324.246C72.9083 314.946 70.5283 304.176 71.2883 297.516C72.0583 290.866 77.3283 283.276 75.6683 274.976C74.0083 266.676 73.3483 265.686 74.0183 258.716C74.6983 251.746 84.2783 242.116 88.5583 235.446C92.8383 228.776 95.5683 220.056 92.8283 212.946C90.0883 205.836 87.8383 201.506 89.6883 198.076C91.5383 194.646 95.7283 201.176 97.9383 201.476C100.148 201.786 106.138 195.806 107.348 194.886C108.558 193.976 114.178 192.996 118.998 189.086C123.818 185.186 122.618 177.576 120.228 175.786C117.838 174.006 116.308 174.086 113.108 177.526C109.908 180.966 105.358 185.176 107.728 180.076C110.088 174.976 109.338 169.946 110.338 165.776C111.338 161.606 112.828 157.006 112.878 151.646C112.938 146.296 105.848 134.546 105.848 134.546C105.848 134.546 117.278 133.946 126.988 131.756C136.698 129.576 136.918 118.516 137.698 113.416C138.478 108.316 145.778 100.386 148.228 97.7563C150.678 95.1163 158.598 85.0063 160.718 72.2263C162.838 59.4463 151.978 60.1663 151.978 60.1663L151.998 60.1763ZM89.9384 221.386C90.1084 230.506 85.2384 233.406 79.5484 239.636C75.5284 244.036 72.8484 251.246 71.6884 251.746C70.5284 252.246 73.3484 241.456 76.4984 236.816C79.6484 232.166 82.7984 225.366 82.5284 217.906C82.2584 210.436 85.9484 205.136 86.4484 206.956C86.9384 208.776 89.7684 212.266 89.9384 221.386ZM107.348 149.586C109.058 156.866 105.888 157.876 104.818 162.116C103.758 166.366 105.458 171.146 104.278 174.726C101.988 181.706 97.4184 174.636 95.7184 181.896C94.0084 189.146 90.0584 191.636 90.8184 182.836C91.1284 179.296 87.6683 172.106 88.1083 169.156C88.5483 166.206 95.1083 161.686 95.8583 154.916C96.2983 150.946 93.9783 145.236 91.6383 141.836C91.5783 141.746 91.5383 140.546 91.8983 139.836C92.5483 138.556 93.0883 138.776 94.2483 138.276C98.7083 137.306 105.848 143.176 107.348 149.576V149.586Z" fill="#B61A2B"/>
</svg>
