<svg width="163" height="255" viewBox="0 0 163 255" fill="none" xmlns="http://www.w3.org/2000/svg">
<path d="M159.17 31.4204C155.82 28.2704 149.86 29.1204 151.21 26.0804C152.56 23.0304 153.35 17.1304 153.02 13.0404C152.78 10.0804 149.68 4.53044 145.93 1.72044C144.5 0.650437 142.981 -0.0195643 141.491 0.000435669C136.091 0.0804357 131.751 5.40043 129.971 6.59043C128.191 7.78043 122.971 8.26042 120.851 9.55042C118.731 10.8304 116.89 15.1404 113.43 15.5004C109.97 15.8704 100.52 12.5404 96.2001 13.2104C91.8701 13.8804 85.5401 15.1504 83.8901 16.9104C82.2401 18.6804 78.0301 20.6304 74.7201 17.3604C71.4101 14.0804 64.0001 18.3304 63.7601 17.2704C63.5201 16.2104 58.0001 10.7304 53.0601 10.7304C48.1201 10.7304 45.2001 15.4104 41.7401 21.7604C38.2801 28.1204 38.67 36.9904 38.78 42.7804C38.89 48.5804 40.7401 49.9904 40.9801 53.1404C41.2201 56.3004 39.9101 60.2904 41.3501 63.2904C42.7801 66.2904 44.5801 69.4704 44.5501 71.1504C44.5101 72.8304 44.0201 75.7804 41.7501 77.2404C39.4801 78.7004 35.1501 81.2104 34.2201 84.8804C33.2901 88.5504 35.9401 92.4704 39.1901 89.8704C42.4401 87.2804 47.73 89.4204 49.9 94.0204C52.07 98.6104 55.6701 101.04 55.6701 101.04C55.6701 101.04 56.4701 105.12 58.1701 107.7C59.8801 110.28 65.9601 113.84 65.9601 113.84C65.9601 113.84 60.8401 115.25 56.8401 118.14C52.8501 121.03 51.6301 127.99 51.6301 127.99C48.2501 122.46 37.6801 124.04 34.2001 123.15C30.7101 122.27 29.4401 118.81 27.5901 115.89C25.7401 112.97 19.8001 110.48 16.9901 113.9C14.1801 117.31 17.53 123.73 20.04 125.99C22.56 128.24 21.3301 134.87 21.5901 138.4C21.8501 141.93 24.1201 143.48 24.7301 144.2C25.3401 144.91 25.2301 148.66 14.7501 153.87C4.27012 159.08 1.84007 168.02 1.32007 174.74C0.810069 181.47 6.55013 192.06 18.3801 191.45C30.2101 190.84 35.4001 195.64 35.3901 203.65C35.3901 211.65 30.7801 225.03 18.0801 231.93C5.38008 238.83 0.02002 253.22 0.02002 253.22C0.24002 256.38 2.66006 251.56 4.56006 249.3C6.45006 247.03 11.5901 243.04 14.6301 242.12C17.6801 241.2 30.7801 241.72 33.8301 240.79C36.8801 239.86 36.6901 238.41 44.0901 234.95C51.4901 231.49 59.5201 227.28 63.7601 219.4C68.0001 211.51 63.3001 198.22 63.3001 198.22C63.3001 198.22 71.7101 193.03 75.4701 189.51C79.2301 185.99 84.6101 175.96 84.6101 175.96C84.6101 175.96 92.8901 178.03 100.69 177.07C108.5 176.11 115.521 171.81 119.121 165.05C119.331 164.65 119.541 164.23 119.731 163.78C122.831 156.82 123.761 145.43 123.991 140.95C124.231 136.19 122.39 136.73 119.41 136.3C116.43 135.87 118.041 131.68 117.511 119.14C116.981 106.6 107.49 106.19 105.16 104.69C102.82 103.19 103.35 95.8404 103.66 87.9004C103.97 79.9604 97.7301 75.5404 94.2001 75.5404C90.6701 75.5404 83.4401 75.9804 74.1401 74.4804C67.3101 73.3804 67.0101 69.7404 68.29 66.1204C68.75 64.8104 69.4201 63.5104 70.0601 62.3304C72.4801 57.8704 73.9501 57.0004 82.6001 52.3204C91.2501 47.6404 94.3701 42.2704 97.9301 36.5504C101.49 30.8304 108.94 34.1204 109.91 35.1604C110.88 36.1904 114.161 39.5104 114.351 44.1504C114.531 48.8004 117.33 53.7204 121.92 53.2904C123.96 53.1004 126.401 52.0304 128.881 50.5504C131.971 48.7104 135.15 46.2304 137.79 44.0304C142.53 40.0504 147.881 44.6404 149.351 48.1704C150.831 51.7004 147.17 55.5904 145.221 55.5904C143.271 55.5904 141.18 53.0504 137.32 53.4904C133.47 53.9404 132.86 61.0604 135.79 62.3404C138.73 63.6204 143.09 58.1504 143.8 60.0004C144.51 61.8504 147.151 69.0004 151.501 67.2904C155.851 65.5704 158.451 53.6404 158.981 52.7604C159.511 51.8804 162.23 46.3704 162.33 42.8004C162.43 39.2304 162.51 34.5804 159.15 31.4304L159.17 31.4204ZM58.16 23.5504C54.97 27.5404 51.09 25.1204 48.29 26.8004C45.49 28.4804 45.11 32.8004 44.41 37.5304C43.7 42.2504 42.7601 44.1504 41.9501 39.3304C41.1401 34.5104 42.3 27.1604 44.41 23.0904C46.53 19.0304 50.3101 14.6204 55.8901 14.6204C58.8901 14.6204 59.7301 21.6004 58.1701 23.5504H58.16ZM20.27 156.7C19.48 158.55 16.3 160.8 13.91 164.64C11.53 168.48 13.38 174.17 15.9 177.09C18.42 180 20.9301 187.29 16.5601 187.02C12.1901 186.76 6.46008 179.47 6.46008 171.65C6.46008 163.83 11.62 158.42 18.15 155.64C20.24 154.75 21.06 154.85 20.27 156.7ZM60.9801 218.71C59.5201 222.12 54.96 224.77 48.65 227.89C43.58 230.4 46.59 226.18 49.4 224.63C52.14 223.13 55.9101 220.39 57.0801 218.27C58.2501 216.16 56.31 208.48 56.77 205.93C57.35 202.65 61.5101 202.45 62.1301 205.69C62.7501 208.93 62.4501 215.3 60.9901 218.7L60.9801 218.71ZM98.66 82.1504C101.04 85.0604 98.4001 99.6304 99.4501 102.81C100.51 105.99 102.631 108.37 108.721 110.75C114.81 113.13 111.63 121.61 112.16 127.12C112.69 132.63 117.261 141.94 118.871 148.27C120.211 153.52 118.81 160.08 116.57 164.37C116.11 165.25 115.621 166.03 115.111 166.69C112.091 170.57 102.081 173.48 97.0101 174.04C92.7601 174.51 96.6601 169.98 100.721 168.57C102.051 168.11 103.42 167.34 104.69 166.41C107.3 164.52 109.521 161.94 110.231 159.93C111.291 156.93 113.72 150.63 113.05 145.63C112.42 140.96 112.171 134.71 110.231 130.98C107.131 125.04 102.14 122.22 98.9301 119.77C92.5701 114.91 95.6301 103.97 96.1101 98.6704C96.5901 93.3704 90.2101 85.5804 88.8701 83.7504C83.3101 76.1504 96.2901 79.2504 98.6701 82.1604L98.66 82.1504Z" fill="#FF0000"/>
<path d="M119.4 136.28C116.42 135.85 118.03 131.66 117.5 119.12C116.97 106.58 107.48 106.17 105.15 104.67C105.09 104.63 105.02 104.58 104.96 104.53C105.29 105.77 105.51 107.18 105.58 108.79C105.58 108.98 105.59 109.17 105.6 109.35C106.5 109.82 107.53 110.28 108.72 110.74C114.81 113.12 111.63 121.6 112.16 127.11C112.69 132.62 117.26 141.93 118.87 148.26C120.48 154.59 118.12 162.8 115.1 166.68C112.08 170.56 102.07 173.47 97 174.03C92.75 174.5 96.65 169.97 100.71 168.56C104.77 167.15 109.16 162.92 110.22 159.92C111.28 156.92 113.71 150.62 113.04 145.62C112.63 142.54 112.37 138.78 111.69 135.5C111.13 141.36 109.87 149.65 107.18 154.7C103.58 161.46 96.56 165.76 88.75 166.72C80.94 167.68 72.6699 165.61 72.6699 165.61C72.6699 165.61 70.4399 177.4 66.6799 180.92C62.9099 184.44 56.03 185.87 55.64 191.26C55.2 197.38 56.0499 201.15 51.8099 209.04C47.5699 216.93 51.87 218.95 44.48 222.41C41.82 223.65 41.08 232.83 34.73 232.65C33.07 232.6 27.8099 238.15 25.8999 238.3C19.3699 238.83 8.64994 241.41 7.18994 243.42C3.28994 248.76 0 253.2 0 253.2C0.22 256.36 2.63992 251.54 4.53992 249.28C6.42992 247.01 11.57 243.02 14.61 242.1C17.66 241.18 30.7599 241.7 33.8099 240.77C36.8599 239.84 36.67 238.39 44.07 234.93C51.47 231.47 59.5 227.26 63.74 219.38C67.98 211.49 63.2799 198.2 63.2799 198.2C63.2799 198.2 71.69 193.01 75.45 189.49C79.21 185.97 84.59 175.94 84.59 175.94C84.59 175.94 92.8699 178.01 100.67 177.05C108.48 176.09 115.5 171.79 119.1 165.03C122.7 158.27 123.73 145.69 123.97 140.93C124.21 136.17 122.37 136.71 119.39 136.28H119.4ZM60.9801 218.71C59.5201 222.12 54.96 224.77 48.65 227.89C43.58 230.4 46.59 226.18 49.4 224.63C52.14 223.13 55.9101 220.39 57.0801 218.27C58.2501 216.16 56.31 208.48 56.77 205.93C57.35 202.65 61.5101 202.45 62.1301 205.69C62.7501 208.93 62.4501 215.3 60.9901 218.7L60.9801 218.71Z" fill="#B61A2B"/>
<path d="M123.98 140.94C123.75 145.42 122.83 156.81 119.72 163.77C118.7 163.98 117.64 164.18 116.56 164.38C118.8 160.08 120.21 153.53 118.86 148.28C117.25 141.95 112.68 132.64 112.15 127.13C111.62 121.62 114.8 113.15 108.71 110.76C102.62 108.38 100.5 105.99 99.44 102.82C98.38 99.6404 101.03 85.0804 98.6499 82.1604C96.2699 79.2504 83.29 76.1504 88.85 83.7504C90.19 85.5804 96.57 93.3704 96.09 98.6704C95.62 103.97 92.5599 114.91 98.9099 119.77C102.12 122.22 107.11 125.04 110.21 130.98C112.16 134.71 112.41 140.96 113.03 145.63C113.7 150.63 111.26 156.93 110.21 159.93C109.5 161.95 107.28 164.52 104.67 166.41C100.99 167.08 98.2399 167.72 97.6599 168.4C95.6199 170.78 81.95 169.19 88.76 166.73C95.56 164.26 97.3199 157.54 97.6599 149.6C98.0099 141.66 94.9299 133.18 90.2999 127.13C85.6699 121.08 83.8 119.41 85.39 109.88C86.98 100.35 81.3299 89.4704 74.2699 78.9904C72.8799 76.9304 71.19 75.2104 69.63 73.8704C67.02 71.6304 64.1499 65.8104 64.1499 65.8104L68.2799 66.1204C66.9999 69.7404 67.29 73.3804 74.13 74.4804C83.42 75.9804 90.66 75.5404 94.19 75.5404C97.72 75.5404 103.96 79.9504 103.65 87.9004C103.34 95.8404 102.82 103.19 105.15 104.69C107.48 106.19 116.97 106.6 117.5 119.14C118.03 131.68 116.41 135.86 119.4 136.3C122.38 136.73 124.23 136.2 123.98 140.95V140.94Z" fill="#B61A2B"/>
<path d="M159.171 31.4204C155.821 28.2704 149.86 29.1204 151.21 26.0804C152.56 23.0304 153.35 17.1304 153.02 13.0404C152.78 10.0804 149.68 4.53044 145.93 1.72044C145.93 1.72044 148.59 18.4304 141.15 27.5104C139.7 29.2804 134.391 33.0904 130.361 33.8704C126.321 34.6604 122.511 32.8804 120.611 32.1704C118.241 31.1304 107.39 26.6404 102.53 27.5104C97.6701 28.3804 95.0202 29.7404 91.4602 35.4504C87.9002 41.1704 81.3401 37.4504 72.6901 42.1304C64.0401 46.8004 67.4302 51.9104 65.0102 56.3704C62.5902 60.8304 63.1002 72.8504 72.3902 74.3504C73.0202 74.4504 72.7402 74.1804 71.7402 73.9004C71.0302 73.7004 69.8001 72.6404 68.9401 71.6704C67.5101 70.0404 67.7302 68.0704 68.7402 64.9304C69.1302 64.0304 69.5901 63.1404 70.0401 62.3204C72.4601 57.8604 73.9301 56.9904 82.5801 52.3104C91.2301 47.6304 94.3501 42.2604 97.9101 36.5404C99.0901 34.6404 100.711 33.7304 102.381 33.4104C103.031 33.4604 105.091 33.2304 106.341 33.5504C109.901 35.1404 112.761 39.5604 113.961 41.7704C114.161 42.5104 114.301 43.3004 114.331 44.1304C114.511 48.7804 117.31 53.7004 121.9 53.2704C123.29 53.1404 124.87 52.6004 126.52 51.8004C126.12 51.9604 129.151 50.3504 129.301 50.2704C131.371 49.1004 134.001 47.4604 135.231 46.0804C135.771 45.6504 136.311 45.2304 136.821 44.8104C138.291 43.8204 140.371 42.7404 141.961 42.5004C141.981 42.5004 142.991 42.4504 143.911 42.8104C144.831 43.1704 145.69 43.9504 146.4 44.3704C147.74 45.4704 148.791 46.8904 149.321 48.1704C150.801 51.7004 147.141 55.5904 145.191 55.5904C143.241 55.5904 141.151 53.0504 137.291 53.4904C133.441 53.9404 132.831 61.0604 135.761 62.3404C138.701 63.6204 143.06 58.1504 143.77 60.0004C144.48 61.8504 147.121 69.0004 151.471 67.2904C155.821 65.5704 158.421 53.6404 158.951 52.7604C159.481 51.8804 162.201 46.3704 162.301 42.8004C162.401 39.2304 162.481 34.5804 159.121 31.4304L159.171 31.4204Z" fill="#B61A2B"/>
</svg>
